<svg width="200" height="41" viewBox="0 0 200 41" fill="none" xmlns="http://www.w3.org/2000/svg">
<g clip-path="url(#clip0_154_68)">
<path d="M48.9453 14.1287H56.2345V31.6536H60.8869V14.1287H68.1761V9.94141H48.9453V14.1287Z" fill="black"/>
<path d="M40.7258 25.1399L30.9552 9.94141H25.6823V31.6536H30.1798V16.455L39.9504 31.6536H45.2232V9.94141H40.7258V25.1399Z" fill="black"/>
<path d="M86.7866 18.5952H76.5509V9.94141H71.8983V31.6536H76.5509V22.7826H86.7866V31.6536H91.4392V9.94141H86.7866V18.5952Z" fill="black"/>
<path d="M8.65384 9.94141L0 31.6536H4.8387L6.60855 27.094H15.6622L17.4318 31.6536H22.2705L13.6166 9.94141H8.65384ZM8.1737 23.0617L11.1352 15.4315L14.0969 23.0617H8.1737Z" fill="black"/>
<path d="M129.994 9.56909C123.728 9.56909 119.293 14.2217 119.293 20.8284C119.293 27.373 123.728 32.0256 129.994 32.0256C136.228 32.0256 140.633 27.373 140.633 20.8284C140.633 14.2217 136.228 9.56909 129.994 9.56909ZM129.994 27.6832C126.334 27.6832 124.1 25.0778 124.1 20.8284C124.1 16.517 126.334 13.9115 129.994 13.9115C133.623 13.9115 135.825 16.517 135.825 20.8284C135.825 25.0778 133.623 27.6832 129.994 27.6832Z" fill="black"/>
<path d="M195.037 24.3644C194.231 26.4735 192.618 27.6832 190.415 27.6832C186.755 27.6832 184.522 25.0778 184.522 20.8284C184.522 16.517 186.755 13.9115 190.415 13.9115C192.618 13.9115 194.231 15.1212 195.037 17.2304H199.969C198.76 12.5778 195.13 9.56909 190.415 9.56909C184.15 9.56909 179.715 14.2217 179.715 20.8284C179.715 27.373 184.15 32.0256 190.415 32.0256C195.161 32.0256 198.789 28.9859 200 24.3644H195.037Z" fill="black"/>
<path d="M165.385 9.94141L174.038 31.6536H178.784L170.13 9.94141H165.385Z" fill="black"/>
<path d="M155.583 9.94141H144.975V31.6536H149.628V23.7751H155.583C160.515 23.7751 163.523 21.1697 163.523 16.8583C163.523 12.5468 160.515 9.94141 155.583 9.94141ZM155.366 19.5878H149.628V14.1287H155.366C157.661 14.1287 158.871 15.0593 158.871 16.8583C158.871 18.6573 157.661 19.5878 155.366 19.5878Z" fill="black"/>
<path d="M115.726 16.5481C115.726 12.4538 112.717 9.94141 107.785 9.94141H97.1774V31.6536H101.83V23.1548H107.01L111.662 31.6536H116.811L111.659 22.5074C114.245 21.5133 115.726 19.42 115.726 16.5481ZM101.83 14.1286H107.568C109.863 14.1286 111.073 14.9661 111.073 16.5481C111.073 18.1301 109.863 18.9675 107.568 18.9675H101.83V14.1286Z" fill="black"/>
</g>
<defs>
<clipPath id="clip0_154_68">
<rect width="200" height="40" fill="white" transform="translate(0 0.206299)"/>
</clipPath>
</defs>
</svg>
