<svg width="140" height="38" viewBox="0 0 140 38" fill="none" xmlns="http://www.w3.org/2000/svg">
<path fill-rule="evenodd" clip-rule="evenodd" d="M23.2327 16.0496C22.4575 15.6438 21.5958 15.432 20.7208 15.432C19.8463 15.432 18.9845 15.6438 18.2091 16.0496C17.8344 16.2606 17.4915 16.5242 17.1911 16.8323V9.4967H13.8153V28.1481H17.1911V21.0019C17.1812 20.5428 17.292 20.0891 17.5125 19.6863C17.7208 19.3164 18.0289 19.0126 18.4019 18.8097C18.7984 18.599 19.2421 18.4923 19.691 18.4998C20.0242 18.4827 20.3572 18.5357 20.6684 18.6554C20.9797 18.775 21.2626 18.9586 21.4986 19.1944C21.7346 19.4302 21.9188 19.7128 22.0387 20.0241C22.1591 20.3354 22.2124 20.6686 22.1962 21.0019V28.1481H25.5739V20.2544C25.591 19.3803 25.3776 18.5171 24.9544 17.7523C24.5482 17.0368 23.9524 16.4475 23.2327 16.0496ZM8.54031 24.9621C8.05496 25.1659 7.53267 25.2668 7.0064 25.2586C6.42402 25.2684 5.84971 25.1214 5.34356 24.833C4.85571 24.551 4.45443 24.1406 4.18314 23.6465C3.89306 23.1127 3.74649 22.5127 3.75778 21.9052C3.74257 21.2972 3.88936 20.6963 4.18314 20.1639C4.46105 19.6813 4.86133 19.2807 5.34356 19.0026C5.85017 18.7154 6.42428 18.569 7.0064 18.5785C7.52254 18.5722 8.03476 18.6686 8.51349 18.8617C8.96058 19.046 9.36103 19.3276 9.68569 19.6863L11.8509 17.4943C11.2575 16.8295 10.5274 16.3012 9.71078 15.9456C8.85619 15.5788 7.93451 15.3945 7.00468 15.4043C5.81009 15.3892 4.63235 15.6874 3.58863 16.269C2.57681 16.8232 1.73583 17.6437 1.15668 18.6419C0.577561 19.6402 0.282339 20.7779 0.303153 21.932C0.285966 23.0786 0.581844 24.2083 1.15873 25.1992C1.73561 26.1899 2.57172 27.0043 3.57691 27.5548C4.6262 28.1317 5.80758 28.4252 7.00468 28.4061C7.93451 28.416 8.85619 28.2316 9.71078 27.8649C10.5426 27.498 11.2891 26.9622 11.9027 26.2911L9.71078 24.0973C9.39153 24.4711 8.9912 24.7668 8.54031 24.9621ZM35.9007 15.9725C36.3535 16.2017 36.7633 16.508 37.1114 16.8774V15.6893H40.4604V28.1481H37.1114V26.9415C36.7609 27.3095 36.3516 27.6169 35.9007 27.8513C35.1589 28.2302 34.3354 28.4209 33.5028 28.4061C32.4206 28.4209 31.3567 28.1254 30.4369 27.5548C29.527 26.9887 28.7875 26.1864 28.2968 25.2335C27.7877 24.2028 27.5228 23.0685 27.5228 21.9187C27.5228 20.7688 27.7877 19.6345 28.2968 18.6036C28.7873 17.6505 29.5268 16.8483 30.4369 16.2825C31.3567 15.7117 32.4206 15.4163 33.5028 15.4311C34.334 15.4162 35.1565 15.6019 35.9007 15.9725ZM34.1223 25.2856C35.0681 25.2845 35.8327 24.9705 36.4166 24.3436C37.0003 23.7158 37.2922 22.9029 37.2922 21.9052C37.304 21.3009 37.1673 20.7028 36.8936 20.1639C36.6413 19.6732 36.2575 19.2622 35.7852 18.9774C35.2804 18.6857 34.7053 18.5385 34.1223 18.5518C33.5478 18.5401 32.981 18.6875 32.4847 18.9774C32.0125 19.2618 31.629 19.6729 31.3776 20.1639C31.1029 20.7026 30.9655 21.3006 30.9775 21.9052C30.9638 22.5185 31.1013 23.1259 31.3776 23.6733C31.6295 24.1641 32.0128 24.575 32.4847 24.8597C32.981 25.1498 33.5478 25.297 34.1223 25.2856ZM51.6684 15.7278C51.1515 15.5232 50.5995 15.4225 50.0439 15.4311C48.6518 15.4311 47.5868 15.8736 46.8489 16.7584L46.8222 16.7937V15.6893H43.4463V28.1481H46.8222V21.2599C46.8222 20.3315 47.0499 19.6394 47.5055 19.1835C47.738 18.9551 48.0143 18.7766 48.3182 18.6591C48.6218 18.5416 48.9464 18.4873 49.2718 18.4998C49.5837 18.4945 49.8938 18.5473 50.1863 18.6556C50.4471 18.7548 50.6811 18.9137 50.8696 19.1199L52.9828 16.6948C52.6251 16.2751 52.1753 15.9441 51.6684 15.7278ZM61.4443 15.9725C61.8975 16.2017 62.3077 16.5079 62.6567 16.8774L62.6615 15.6893H66.0107V28.1481H62.6615V26.9415C62.3102 27.3095 61.9007 27.6169 61.4493 27.8513C60.7081 28.2302 59.8851 28.4206 59.053 28.4061C57.9703 28.4209 56.9059 28.1254 55.9852 27.5548C55.0757 26.9887 54.3361 26.1864 53.8453 25.2335C53.3363 24.2028 53.0717 23.0685 53.0717 21.9187C53.0717 20.7688 53.3363 19.6345 53.8453 18.6036C54.3342 17.651 55.0721 16.8489 55.9802 16.2825C56.9009 15.7118 57.9651 15.4163 59.0479 15.4311C59.8786 15.4163 60.7005 15.602 61.4443 15.9725ZM59.6661 25.2856C60.6116 25.2845 61.3762 24.9705 61.96 24.3438C62.544 23.7158 62.8359 22.9029 62.8359 21.9052C62.8476 21.3009 62.7107 20.7028 62.4373 20.1639C62.1856 19.6728 61.8015 19.2618 61.3287 18.9774C60.8238 18.6857 60.2487 18.5385 59.6661 18.5518C59.0919 18.5404 58.5258 18.6877 58.03 18.9774C57.5568 19.2613 57.1727 19.6723 56.9214 20.1639C56.6467 20.7026 56.5092 21.3006 56.5212 21.9052C56.5073 22.5185 56.6448 23.1259 56.9214 23.6733C57.1733 24.1645 57.5571 24.5756 58.03 24.8597C58.5258 25.1495 59.0919 25.2968 59.6661 25.2856ZM76.4082 24.9621C75.9226 25.1657 75.4005 25.2668 74.8742 25.2586C74.2919 25.2689 73.7172 25.122 73.2113 24.833C72.7233 24.5515 72.3217 24.141 72.0508 23.6465C71.7608 23.1127 71.6143 22.5127 71.6255 21.9052C71.6103 21.2972 71.7573 20.6963 72.0508 20.1639C72.3285 19.681 72.7287 19.2803 73.2113 19.0026C73.7178 18.715 74.2921 18.5687 74.8742 18.5785C75.3903 18.572 75.9026 18.6682 76.3812 18.8617C76.8285 19.0458 77.229 19.3275 77.5533 19.6863L79.7169 17.4943C79.1241 16.8295 78.3946 16.3012 77.5784 15.9456C76.7239 15.5792 75.8024 15.3949 74.8723 15.4043C73.6777 15.3892 72.5 15.6874 71.4564 16.269C70.4445 16.8232 69.6035 17.6437 69.0244 18.6419C68.4451 19.6402 68.1501 20.7779 68.1707 21.932C68.1539 23.0785 68.4496 24.2078 69.0263 25.1986C69.6027 26.1891 70.4382 27.0039 71.4429 27.5548C72.493 28.1317 73.6748 28.425 74.8723 28.4061C75.8024 28.4157 76.7239 28.2313 77.5784 27.8649C78.41 27.4986 79.1561 26.9625 79.7687 26.2911L77.5784 24.0973C77.259 24.4707 76.8589 24.7665 76.4082 24.9621ZM83.3021 10.5023H86.6799V15.6875H89.5917V18.6539H86.6799V28.1481H83.3021V18.6539H80.3902V15.6875H83.3021V10.5023ZM100.094 16.2172C99.127 15.6632 98.0275 15.3823 96.9127 15.4043C95.7476 15.3906 94.6 15.6891 93.5889 16.269C92.6137 16.8238 91.8005 17.624 91.2295 18.5903C90.7852 19.3359 90.4955 20.1635 90.3777 21.0237C90.2597 21.8838 90.3159 22.7589 90.5435 23.5968C90.771 24.4347 91.1647 25.2182 91.701 25.9005C92.2375 26.5828 92.9056 27.1499 93.6659 27.5681C94.7353 28.1405 95.9334 28.4288 97.1457 28.4061C98.1128 28.4149 99.0719 28.2308 99.9672 27.8649C100.818 27.5149 101.574 26.9666 102.171 26.266L100.187 24.2783C99.8205 24.6999 99.3619 25.0314 98.8469 25.2469C98.2981 25.4679 97.7104 25.5773 97.1187 25.5687C96.4716 25.5824 95.8322 25.4272 95.2634 25.1179C94.7334 24.8222 94.3051 24.3728 94.0345 23.8291C93.9197 23.602 93.8293 23.3631 93.7647 23.1169L102.862 23.0934C102.925 22.8343 102.972 22.572 103.005 22.3074C103.148 20.9717 102.888 19.6235 102.256 18.4378C101.749 17.516 101.002 16.7488 100.094 16.2172ZM93.7682 20.5862C93.8277 20.3608 93.9095 20.1418 94.0126 19.9326C94.2628 19.4076 94.6616 18.9676 95.1598 18.6674C95.6909 18.3582 96.2971 18.2022 96.9111 18.2165C97.475 18.1981 98.0326 18.3368 98.522 18.617C98.9653 18.8894 99.3155 19.2896 99.5267 19.765C99.6434 20.0225 99.7322 20.2916 99.7913 20.5678L93.7682 20.5862ZM114.672 16.6948L112.557 19.1199C112.369 18.9138 112.135 18.7548 111.875 18.6556C111.582 18.5471 111.271 18.4942 110.959 18.4998C110.634 18.4872 110.309 18.5413 110.006 18.6588C109.702 18.7765 109.426 18.955 109.194 19.1835C108.739 19.6394 108.511 20.3315 108.511 21.2599V28.1481H105.133V15.6893H108.511V16.7937L108.536 16.7584C109.276 15.8736 110.342 15.4311 111.733 15.4311C112.288 15.4227 112.84 15.5234 113.357 15.7278C113.864 15.9445 114.313 16.2756 114.672 16.6948ZM113.447 24.1242C113.164 24.1141 112.883 24.1639 112.62 24.2706C112.358 24.3772 112.121 24.5378 111.925 24.7425C111.544 25.1579 111.333 25.701 111.333 26.2652C111.333 26.8291 111.544 27.3725 111.925 27.7876C112.121 27.9923 112.358 28.153 112.62 28.2597C112.883 28.3663 113.164 28.4163 113.447 28.4061C113.726 28.4138 114.003 28.3628 114.26 28.2564C114.517 28.1497 114.75 27.9901 114.941 27.7876C115.322 27.3725 115.534 26.8291 115.534 26.2652C115.534 25.701 115.322 25.1579 114.941 24.7425C114.75 24.54 114.517 24.3804 114.26 24.2739C114.003 24.1673 113.726 24.1163 113.447 24.1242ZM125.98 15.9725C126.432 16.2017 126.842 16.508 127.19 16.8774L127.185 15.6893H130.535V28.153H127.185V26.9464C126.835 27.3144 126.426 27.6218 125.975 27.8565C125.233 28.2351 124.409 28.4255 123.577 28.4111C122.494 28.4258 121.43 28.1303 120.509 27.5597C119.6 26.9936 118.861 26.1915 118.37 25.2387C117.862 24.2078 117.597 23.0735 117.597 21.9237C117.597 20.7738 117.862 19.6395 118.37 18.6086C118.86 17.6555 119.599 16.8533 120.509 16.2875C121.43 15.7142 122.497 15.4172 123.582 15.4311C124.413 15.4163 125.235 15.602 125.98 15.9725ZM124.2 25.2856C125.144 25.2845 125.909 24.9705 126.494 24.3436H126.489C127.074 23.7158 127.368 22.9029 127.371 21.9052C127.383 21.3008 127.245 20.7027 126.971 20.1639C126.719 19.6728 126.335 19.2618 125.862 18.9774C125.358 18.6857 124.782 18.5385 124.2 18.5518C123.626 18.5404 123.06 18.6877 122.564 18.9774C122.091 19.2618 121.707 19.6728 121.455 20.1639C121.182 20.7028 121.045 21.3009 121.056 21.9052C121.043 22.5183 121.18 23.1253 121.455 23.6733C121.707 24.1642 122.091 24.575 122.564 24.8597C123.06 25.1495 123.626 25.2968 124.2 25.2856ZM136.929 15.6875H133.527V28.1481H136.929V15.6875ZM135.978 13.5468C135.74 13.6424 135.484 13.6867 135.228 13.6765C134.975 13.6841 134.722 13.6386 134.487 13.5431C134.252 13.4476 134.04 13.3041 133.864 13.1217C133.515 12.7492 133.322 12.2583 133.322 11.7483C133.322 11.2383 133.515 10.7474 133.864 10.3749C134.228 10.0111 134.721 9.8067 135.236 9.8067C135.751 9.8067 136.244 10.0111 136.609 10.3749C136.949 10.7512 137.137 11.2407 137.137 11.7483C137.137 12.2559 136.949 12.7454 136.609 13.1217C136.431 13.3064 136.215 13.4512 135.978 13.5468Z" fill="black"/>
</svg>