<svg width="222" height="41" viewBox="0 0 222 41" fill="none" xmlns="http://www.w3.org/2000/svg">
<g clip-path="url(#clip0_4_2)">
<path fill-rule="evenodd" clip-rule="evenodd" d="M6.01396 9.50247C6.63772 9.55028 7.28905 9.65847 7.93625 9.8421C9.29391 10.2273 10.6919 10.9638 11.7887 12.2176C13.5394 9.74296 16.5681 6.34851 21.4911 3.83944C15.685 2.52564 9.56191 4.73881 6.01396 9.50247ZM24.4142 5.59315C19.2246 7.79705 16.0937 11.1322 14.3122 13.5862C16.3324 13.7673 18.0732 14.1603 19.6701 14.9185L19.6718 14.9194L19.6749 14.9208C19.7233 14.9439 19.7716 14.9673 19.8199 14.991C21.403 15.7699 22.7706 16.8787 24.114 18.3651C24.9195 15.2028 25.5988 10.4523 24.4142 5.59315ZM26.7246 19.6833C28.4284 19.7227 29.9087 20.3091 31.0836 21.0948C31.645 21.4702 32.1483 21.8985 32.5839 22.3466C34.2648 16.6215 32.2532 10.4465 27.5672 6.73945C28.4112 11.8506 27.5688 16.6203 26.7246 19.6833ZM31.3313 25.3415C30.9951 24.7786 30.368 24.0234 29.4733 23.4251C28.3334 22.6628 26.8567 22.2172 25.09 22.7017C24.516 22.8591 23.9029 22.6504 23.5505 22.1776C22.1425 20.2885 20.9258 19.0289 19.6677 18.1709L12.8377 32.1017C19.8058 34.6904 27.733 31.8419 31.3313 25.3415ZM10.2651 30.8625C5.33011 27.8891 2.67238 22.4505 3.15021 16.987C3.21801 16.2117 2.63413 15.5292 1.84608 15.4625C1.05803 15.3958 0.364222 15.9702 0.29642 16.7454C-0.318777 23.7796 3.43239 30.7871 10.2709 34.0765C19.1511 38.348 29.87 34.7289 34.2121 25.9931C38.5543 17.2572 34.8754 6.71256 25.9951 2.44105C17.1148 -1.83047 6.396 1.7886 2.05386 10.5245C1.79942 11.0364 1.88349 11.6487 2.26689 12.0759C2.65028 12.503 3.2575 12.6609 3.80538 12.4759C4.36948 12.2855 5.73234 12.1494 7.14259 12.5495C8.49009 12.9318 9.76166 13.764 10.4461 15.405C10.6633 15.9256 11.1744 16.2691 11.7463 16.2788C13.9865 16.3169 15.6791 16.5129 17.09 16.9423L10.2651 30.8625Z" fill="black"/>
<path d="M128.306 2.85031H133.566V31.8463H128.306V2.85031Z" fill="black"/>
<path fill-rule="evenodd" clip-rule="evenodd" d="M169.596 17.1768C168.967 18.4969 168.656 19.9809 168.656 21.6217H168.649C168.649 23.1953 168.944 24.6346 169.543 25.9323C170.142 27.23 170.967 28.3486 172.036 29.2809C173.105 30.2131 174.378 30.9365 175.863 31.4511C177.349 31.9657 178.986 32.2193 180.759 32.2193C181.518 32.2193 182.29 32.1596 183.063 32.0328C183.836 31.906 184.587 31.742 185.307 31.5331C186.027 31.3243 186.702 31.0857 187.33 30.8023C187.959 30.5189 188.505 30.2205 188.967 29.9073V31.8463H194.227V2.85031H188.967V12.717C188.505 12.4485 187.975 12.2025 187.376 11.9713C186.777 11.7401 186.14 11.5461 185.458 11.3821C184.777 11.218 184.064 11.0912 183.329 10.9943C182.594 10.8973 181.843 10.8525 181.086 10.8525C179.305 10.8525 177.652 11.1061 176.137 11.6133C174.621 12.1204 173.302 12.8438 172.195 13.7835C171.089 14.7232 170.225 15.8568 169.596 17.1768ZM174.689 23.9634C174.348 23.2325 174.181 22.4495 174.181 21.6217V21.6068C174.181 20.7267 174.348 19.9064 174.697 19.1457C175.045 18.385 175.538 17.7287 176.182 17.1693C176.826 16.61 177.622 16.17 178.562 15.8493C179.502 15.5286 180.578 15.372 181.783 15.372C182.374 15.372 182.98 15.4167 183.609 15.5063C184.238 15.5957 184.86 15.73 185.474 15.9164C186.087 16.1029 186.694 16.3415 187.285 16.6324C187.876 16.9233 188.444 17.2812 188.975 17.6988V24.8509C188.551 25.2834 188.05 25.6713 187.474 26.0218C186.898 26.3723 186.284 26.6706 185.625 26.9167C184.966 27.1628 184.276 27.3493 183.571 27.4835C182.866 27.6178 182.154 27.6849 181.442 27.6849C180.327 27.6849 179.327 27.5282 178.433 27.2076C177.538 26.8869 176.773 26.4469 176.144 25.895C175.515 25.3431 175.03 24.6943 174.689 23.9634Z" fill="black"/>
<path fill-rule="evenodd" clip-rule="evenodd" d="M196.903 17.4528C196.319 18.7281 196.031 20.063 196.031 21.4651C196.031 22.9716 196.342 24.3736 196.941 25.6788C197.54 26.9839 198.441 28.1175 199.639 29.087C200.836 30.0565 202.322 30.8247 204.095 31.3766C205.869 31.9284 207.938 32.2118 210.295 32.2118C211.22 32.2118 212.098 32.1745 212.932 32.0925C213.766 32.0105 214.562 31.8912 215.327 31.7345C216.093 31.5779 216.828 31.3766 217.533 31.1379C218.238 30.8992 219.049 30.6158 219.738 30.3026L217.843 26.3574C216.759 26.7452 215.615 27.0659 214.418 27.312C213.22 27.5581 212.015 27.6849 210.81 27.6849C209.605 27.6849 208.498 27.5805 207.506 27.3792C206.513 27.1778 205.634 26.8869 204.876 26.514C204.118 26.1411 203.481 25.6937 202.981 25.1865C202.481 24.6794 202.117 24.1126 201.89 23.4936H221.716C221.739 23.3072 221.754 23.1058 221.762 22.8746C221.769 22.6439 221.769 22.4354 221.769 22.2344V22.2332C221.769 20.6448 221.474 19.1606 220.875 17.7735C220.276 16.3863 219.42 15.1856 218.298 14.1564C217.177 13.1272 215.82 12.3218 214.213 11.7326C212.606 11.1435 210.81 10.8526 208.802 10.8526C206.793 10.8526 204.997 11.1435 203.413 11.7252C201.829 12.3068 200.487 13.0825 199.404 14.0669C198.32 15.0513 197.486 16.1775 196.903 17.4528ZM215.312 17.8555C215.706 18.3477 216.002 18.8772 216.191 19.4515L216.183 19.4664H201.882C202.071 18.9145 202.367 18.3924 202.777 17.9077C203.186 17.423 203.694 16.9904 204.315 16.6175C204.937 16.2446 205.649 15.9463 206.468 15.7225C207.286 15.4988 208.196 15.387 209.188 15.387C210.128 15.387 210.985 15.4913 211.765 15.7002C212.546 15.909 213.235 16.1999 213.826 16.5653C214.418 16.9307 214.918 17.3633 215.312 17.8555Z" fill="black"/>
<path d="M163.821 8.4064C163.298 8.4064 162.828 8.33181 162.411 8.19015C161.994 8.04843 161.631 7.84707 161.335 7.59354C161.039 7.33994 160.812 7.04911 160.653 6.72092C160.494 6.3928 160.41 6.03482 160.41 5.66193C160.41 5.28904 160.494 4.91615 160.653 4.588C160.812 4.25986 161.039 3.96901 161.335 3.7229C161.631 3.47679 161.987 3.28288 162.411 3.13373C162.836 2.98457 163.305 2.91745 163.821 2.91745C164.336 2.91745 164.829 2.99203 165.254 3.13373C165.678 3.27543 166.034 3.47679 166.329 3.7229C166.625 3.96901 166.852 4.2524 167.012 4.588C167.171 4.9236 167.254 5.28158 167.254 5.66193C167.254 6.04228 167.171 6.38534 167.012 6.72092C166.852 7.05655 166.625 7.34738 166.329 7.59354C166.034 7.83963 165.678 8.04098 165.254 8.19015C164.829 8.33932 164.359 8.4064 163.821 8.4064Z" fill="black"/>
<path d="M161.191 11.218H166.451V31.8464H161.191V11.218Z" fill="black"/>
<path d="M137.495 25.5239L137.492 25.5221L137.499 25.5146L137.495 25.5239Z" fill="black"/>
<path d="M135.521 29.4748L137.495 25.5239C138.919 26.3583 140.479 26.9767 142.183 27.3717C143.888 27.7669 145.631 27.9683 147.42 27.9683C148.625 27.9683 149.633 27.8863 150.436 27.7221C151.24 27.5581 151.884 27.3493 152.369 27.0957C152.854 26.8421 153.195 26.5513 153.4 26.2231C153.604 25.895 153.703 25.5669 153.703 25.2238C153.703 24.7316 153.483 24.314 153.051 23.9634C152.619 23.6129 151.906 23.4414 150.914 23.4414C150.452 23.4414 149.951 23.4712 149.421 23.5309L147.746 23.7173C147.162 23.7844 146.548 23.8441 145.919 23.9037C145.29 23.9634 144.646 23.9933 143.994 23.9933C142.569 23.9933 141.364 23.8441 140.364 23.5383C139.364 23.2325 138.553 22.8224 137.924 22.3004C137.295 21.7783 136.84 21.1518 136.559 20.4359C136.279 19.7199 136.135 18.9443 136.135 18.1165C136.135 17.0649 136.385 16.1029 136.878 15.2154C137.37 14.3279 138.083 13.5672 139.007 12.9184C139.932 12.2695 141.046 11.7699 142.358 11.4044C143.668 11.039 145.124 10.86 146.738 10.86C147.579 10.86 148.458 10.9122 149.375 11.0092C150.292 11.1061 151.194 11.2404 152.081 11.4044C152.968 11.5685 153.824 11.7549 154.642 11.9712C155.323 12.1511 156.098 12.4598 156.702 12.7002C156.824 12.749 156.939 12.7949 157.046 12.8364L155.158 16.6846C153.817 16.1924 152.482 15.8045 151.149 15.5212C149.815 15.2378 148.443 15.096 147.033 15.096C146.048 15.096 145.222 15.1706 144.54 15.3124C143.858 15.454 143.305 15.6479 142.88 15.8866C142.456 16.1252 142.145 16.4012 141.948 16.7069C141.751 17.0127 141.652 17.3408 141.652 17.6765C141.652 17.9226 141.705 18.1389 141.804 18.3402C141.903 18.5416 142.07 18.7131 142.304 18.8548C142.539 18.9965 142.835 19.1084 143.214 19.1904C143.593 19.2724 144.047 19.3023 144.593 19.3023C145.094 19.3023 145.616 19.2724 146.177 19.2128C146.33 19.1965 146.485 19.1802 146.641 19.1637L146.641 19.1637C147.055 19.1199 147.48 19.0751 147.92 19.0263C148.527 18.9592 149.148 18.8996 149.792 18.8399C150.436 18.7802 151.096 18.7504 151.77 18.7504C153.028 18.7504 154.127 18.8996 155.067 19.1904C156.007 19.4813 156.788 19.8914 157.401 20.4135C158.015 20.9356 158.478 21.5546 158.788 22.2631C159.099 22.9716 159.25 23.7471 159.25 24.5899C159.25 25.6712 158.993 26.6781 158.486 27.6103C157.977 28.5425 157.22 29.348 156.212 30.0341C155.204 30.7202 153.953 31.2497 152.452 31.6301C150.952 32.0104 149.224 32.2043 147.254 32.2043C146.048 32.2043 144.881 32.1298 143.752 31.988C142.623 31.8463 141.554 31.645 140.538 31.3914C139.523 31.1378 138.553 30.8693 137.666 30.5114C136.53 30.0548 136.295 29.9158 135.999 29.741C135.874 29.6674 135.739 29.5874 135.521 29.4748Z" fill="black"/>
<path fill-rule="evenodd" clip-rule="evenodd" d="M101.325 17.3707C100.711 18.6684 100.408 20.0556 100.408 21.5322C100.408 23.0163 100.711 24.396 101.325 25.6937C101.938 26.9913 102.81 28.1175 103.94 29.087C105.069 30.0565 106.433 30.8247 108.04 31.3766C109.647 31.9284 111.45 32.2118 113.451 32.2118C115.452 32.2118 117.263 31.9359 118.862 31.3766C120.462 30.8172 121.833 30.0565 122.962 29.087C124.092 28.1175 124.956 26.9913 125.57 25.6937C126.183 24.396 126.487 23.0163 126.487 21.5322C126.487 20.0481 126.176 18.6684 125.57 17.3707C124.964 16.0731 124.092 14.947 122.962 13.9774C121.833 13.0079 120.469 12.2398 118.862 11.6879C117.256 11.136 115.452 10.8526 113.451 10.8526C111.45 10.8526 109.639 11.1286 108.04 11.6879C106.441 12.2472 105.076 13.0079 103.94 13.9774C102.802 14.947 101.938 16.0731 101.325 17.3707ZM106.441 23.8814C106.1 23.1431 105.933 22.36 105.933 21.5322C105.933 20.7044 106.1 19.9213 106.441 19.1755C106.782 18.4297 107.274 17.766 107.919 17.2067C108.562 16.6473 109.359 16.1999 110.283 15.8643C111.208 15.5286 112.269 15.3646 113.451 15.3646C114.633 15.3646 115.687 15.5361 116.619 15.8643C117.551 16.1924 118.332 16.6399 118.984 17.2067C119.636 17.7735 120.121 18.4297 120.462 19.1755C120.802 19.9213 120.969 20.7044 120.969 21.5322C120.969 22.36 120.802 23.1431 120.462 23.8814C120.121 24.6198 119.628 25.276 118.984 25.8354C118.34 26.3947 117.544 26.8422 116.619 27.1778C115.694 27.5134 114.633 27.6774 113.451 27.6774C112.269 27.6774 111.215 27.5059 110.283 27.1778C109.351 26.8496 108.57 26.3947 107.919 25.8354C107.266 25.276 106.782 24.6198 106.441 23.8814Z" fill="black"/>
<path fill-rule="evenodd" clip-rule="evenodd" d="M73.1994 21.5322C73.1994 20.0556 73.5028 18.6684 74.1163 17.3707C74.7305 16.0731 75.5945 14.947 76.7311 13.9774C77.8683 13.0079 79.232 12.2472 80.8314 11.6879C82.4308 11.1286 84.2419 10.8526 86.2431 10.8526C88.2437 10.8526 90.0474 11.136 91.6542 11.6879C93.2609 12.2398 94.6252 13.0079 95.7545 13.9774C96.8837 14.947 97.7551 16.0731 98.3693 17.3707C98.9828 18.6684 99.2862 20.0481 99.2862 21.5322C99.2862 23.0163 98.9828 24.396 98.3693 25.6937C97.7551 26.9913 96.8911 28.1175 95.7545 29.087C94.6172 30.0565 93.2536 30.8172 91.6542 31.3766C90.0548 31.9359 88.2437 32.2118 86.2431 32.2118C84.2419 32.2118 82.4382 31.9284 80.8314 31.3766C79.2246 30.8247 77.8603 30.0565 76.7311 29.087C75.6019 28.1175 74.7305 26.9913 74.1163 25.6937C73.5028 24.396 73.1994 23.0163 73.1994 21.5322ZM78.7243 21.5322C78.7243 22.36 78.8911 23.1431 79.232 23.8814C79.5736 24.6198 80.0585 25.276 80.7102 25.8354C81.3619 26.3947 82.1428 26.8496 83.0751 27.1778C84.0068 27.5059 85.0603 27.6774 86.2431 27.6774C87.4253 27.6774 88.4862 27.5134 89.4111 27.1778C90.3354 26.8422 91.1311 26.3947 91.7754 25.8354C92.4197 25.276 92.912 24.6198 93.2536 23.8814C93.5945 23.1431 93.7613 22.36 93.7613 21.5322C93.7613 20.7044 93.5945 19.9213 93.2536 19.1755C92.912 18.4297 92.4271 17.7735 91.7754 17.2067C91.1237 16.6399 90.3428 16.1924 89.4111 15.8643C88.4788 15.5361 87.4253 15.3646 86.2431 15.3646C85.0603 15.3646 83.9994 15.5286 83.0751 15.8643C82.1502 16.1999 81.3545 16.6473 80.7102 17.2067C80.0659 17.766 79.5736 18.4297 79.232 19.1755C78.8911 19.9213 78.7243 20.7044 78.7243 21.5322Z" fill="black"/>
<path fill-rule="evenodd" clip-rule="evenodd" d="M46.1049 40.2737H51.3647L51.3722 40.2663V30.3548C51.8346 30.6233 52.3651 30.8694 52.9638 31.1006C53.5626 31.3318 54.1992 31.5257 54.8813 31.6898C55.5634 31.8539 56.2758 31.9806 57.0109 32.0776C57.7461 32.1745 58.4964 32.2193 59.2543 32.2193C61.0354 32.2193 62.6874 31.9657 64.2031 31.4586C65.7194 30.9515 67.0381 30.228 68.1446 29.2883C69.2511 28.3487 70.1151 27.2151 70.744 25.895C71.3729 24.575 71.6837 23.0238 71.6837 21.4502C71.6837 19.8766 71.3883 18.4372 70.7895 17.1395C70.1908 15.8419 69.3643 14.7232 68.296 13.791C67.2271 12.8588 65.9538 12.1353 64.4689 11.6208C62.9834 11.1062 61.3461 10.8526 59.5726 10.8526C58.7996 10.8526 58.0265 10.9123 57.261 11.039C56.4956 11.1658 55.7453 11.3299 55.0253 11.5387C54.3053 11.7475 53.6308 11.9862 53.0017 12.2696C52.3727 12.553 51.8269 12.8513 51.3647 13.1645V11.2255H46.1049V40.2737ZM53.0548 26.432C52.4636 26.1411 51.8952 25.7832 51.3647 25.3656V18.2284C51.7891 17.7958 52.2893 17.408 52.8653 17.0575C53.4413 16.707 54.0552 16.4087 54.7145 16.1626C55.3739 15.9164 56.0636 15.73 56.7684 15.5958C57.4733 15.4616 58.1857 15.3944 58.8981 15.3944C60.0122 15.3944 61.0126 15.551 61.9071 15.8717C62.8012 16.1924 63.5668 16.6324 64.1957 17.1843C64.8246 17.7362 65.3101 18.385 65.6511 19.1159C65.992 19.8467 66.1588 20.6298 66.1588 21.4576C66.1588 22.3377 65.992 23.158 65.6431 23.9187C65.2948 24.6794 64.8018 25.3357 64.1582 25.895C63.5138 26.4544 62.7181 26.8944 61.7778 27.2151C60.8383 27.5358 59.7621 27.6924 58.557 27.6924C57.9659 27.6924 57.3596 27.6476 56.7305 27.5581C56.1015 27.4686 55.48 27.3344 54.8661 27.148C54.2522 26.9615 53.6459 26.7228 53.0548 26.432Z" fill="black"/>
</g>
<defs>
<clipPath id="clip0_4_2">
<rect width="221.538" height="40" fill="white" transform="translate(0.230774 0.5)"/>
</clipPath>
</defs>
</svg>
