<svg width="320" height="38" viewBox="0 0 320 38" fill="none" xmlns="http://www.w3.org/2000/svg">
<path d="M243.389 9.29958C244.106 9.29958 244.732 9.07579 245.18 8.6283C245.672 8.18085 245.94 7.59912 245.94 6.88314C245.94 6.16717 245.672 5.58544 245.18 5.13796C244.687 4.69047 244.106 4.46674 243.389 4.46674C242.673 4.46674 242.047 4.69047 241.555 5.13796C241.062 5.58544 240.794 6.16717 240.794 6.88314C240.794 7.59912 241.062 8.18085 241.555 8.6283C242.047 9.07579 242.673 9.29958 243.389 9.29958Z" fill="black"/>
<path d="M105.609 19.4128C105.609 18.0255 105.34 16.8174 104.759 15.8329C104.222 14.8037 103.461 14.043 102.477 13.4612C101.492 12.8795 100.328 12.611 98.986 12.611C97.5544 12.611 96.212 12.969 94.9589 13.6402C93.7057 14.3114 92.6772 15.2959 91.9164 16.6384C91.1556 17.9361 90.7524 19.4575 90.7524 21.2922C90.7524 23.1269 91.111 24.5588 91.7817 25.8565C92.4533 27.1095 93.3926 28.094 94.6012 28.7652C95.8089 29.4364 97.1967 29.7944 98.763 29.7944C100.328 29.7944 101.716 29.4364 102.835 28.7652C103.998 28.0492 104.893 27.1095 105.564 25.8565L104.58 24.9616C103.998 25.588 103.372 26.1251 102.7 26.5278C102.029 26.9305 101.179 27.1095 100.195 27.1095C98.763 27.1095 97.599 26.6172 96.6143 25.6328C95.6751 24.6483 95.1827 23.2164 95.0935 21.2474H105.475C105.52 20.7552 105.609 20.1287 105.609 19.4128ZM101.358 19.189C101.089 19.547 100.552 19.6813 99.7469 19.6813H95.0935C95.1827 18.3388 95.4066 17.2649 95.7643 16.4593C96.1674 15.6539 96.6143 15.117 97.1067 14.7589C97.6437 14.401 98.1806 14.222 98.7176 14.222C99.5684 14.222 100.284 14.5352 100.865 15.2064C101.448 15.8776 101.761 16.7278 101.761 17.757C101.716 18.3388 101.582 18.831 101.358 19.189Z" fill="black"/>
<path d="M130.355 13.9983C129.192 13.0585 127.58 12.5664 125.522 12.5664C123.464 12.5664 121.853 13.0586 120.689 14.0878C119.526 15.0722 118.944 16.4147 118.944 18.0704C118.944 20.2631 119.839 21.8293 121.629 22.7243C120.779 23.4849 120.152 24.2009 119.75 24.8722C119.347 25.4986 119.168 26.1699 119.168 26.7963C119.168 27.4228 119.347 27.9598 119.66 28.4072C120.018 28.8547 120.511 29.2128 121.226 29.4365C120.152 29.9734 119.347 30.5105 118.9 31.0922C118.407 31.7186 118.183 32.3899 118.183 33.1059C118.183 33.8218 118.407 34.5378 118.854 35.1195C119.347 35.746 120.107 36.1934 121.137 36.5962C122.211 36.9542 123.598 37.1332 125.343 37.1332C127.357 37.1332 129.013 36.8647 130.355 36.283C131.697 35.7013 132.727 34.9853 133.398 34.0455C134.114 33.1059 134.427 32.1214 134.427 31.0474C134.427 29.6155 133.934 28.4968 132.995 27.6466C132.055 26.7963 130.489 26.3936 128.252 26.3936H124.001C123.24 26.3936 122.748 26.2593 122.435 26.0356C122.166 25.7672 122.031 25.4539 122.031 25.0064C122.031 24.3351 122.255 23.7087 122.658 23.127C123.508 23.3955 124.449 23.4849 125.477 23.4849C127.536 23.4849 129.192 22.9927 130.31 22.0083C131.474 20.9791 132.055 19.6366 132.055 18.0256C132.055 16.907 131.831 15.9672 131.34 15.1618H134.606V12.7901L134.114 12.4321L130.355 13.9983ZM122.121 29.884C122.792 30.0182 123.508 30.1077 124.358 30.1077H128.117C129.192 30.1077 129.952 30.3315 130.4 30.7789C130.847 31.2264 131.071 31.7634 131.071 32.3899C131.071 33.2401 130.624 33.9561 129.683 34.5378C128.789 35.1195 127.446 35.4328 125.656 35.4328C124.225 35.4328 123.151 35.209 122.39 34.7168C121.629 34.2246 121.226 33.4638 121.226 32.4346C121.181 31.5844 121.494 30.7342 122.121 29.884ZM127.626 20.9791C127.133 21.7397 126.417 22.0978 125.477 22.0978C124.538 22.0978 123.866 21.7397 123.419 21.0238C122.927 20.3078 122.703 19.3233 122.703 18.1151C122.703 16.907 122.971 15.9225 123.464 15.2065C124.001 14.4458 124.717 14.0878 125.612 14.0878C126.506 14.0878 127.223 14.4458 127.67 15.1618C128.163 15.8777 128.431 16.8174 128.431 18.0256C128.386 19.2339 128.163 20.2631 127.626 20.9791Z" fill="black"/>
<path d="M152.729 24.7827V18.6521C152.729 16.549 152.326 15.0275 151.521 14.0431C150.716 13.0586 149.552 12.5664 148.12 12.5664C146.017 12.5664 144.048 13.5509 142.347 15.5646V9.52347L142.482 4.73542L141.99 4.42218L135.948 5.94363V7.28607L138.409 7.64407V24.7379C138.409 25.7224 138.409 26.6174 138.365 27.4676L136.128 27.9151V29.3023H144.495V27.9151L142.482 27.5123C142.437 26.6621 142.437 25.7224 142.437 24.7827V17.3992C143.78 16.1015 145.122 15.475 146.375 15.475C147.225 15.475 147.852 15.7435 148.165 16.2358C148.523 16.728 148.702 17.6677 148.702 18.9654V24.7827C148.702 25.7224 148.702 26.6174 148.657 27.4676L146.509 27.9151V29.3023H154.832V27.9151L152.774 27.5123C152.729 26.6621 152.729 25.7671 152.729 24.7827Z" fill="black"/>
<path d="M91.9164 6.83856H84.4431V8.40479L87.2175 8.80751L83.1006 23.6192L78.5811 8.76273L81.7582 8.40479V6.83856H72.0925V8.40479L75.046 8.76273L70.3921 23.4402L66.5438 8.76273L69.3629 8.40479V6.83856H59.5182V8.40479L61.9794 8.67327L68.0652 29.3917H70.3921L75.4934 12.8796L80.8633 29.3917H83.1902L89.0522 8.80751L91.7817 8.36002V6.83856H91.9164Z" fill="black"/>
<path d="M112.277 9.43393C112.992 9.43393 113.619 9.21022 114.066 8.76273C114.559 8.31524 114.827 7.73353 114.827 7.01755C114.827 6.30158 114.559 5.71985 114.066 5.27236C113.575 4.82488 112.992 4.60114 112.277 4.60114C111.561 4.60114 110.935 4.82488 110.442 5.27236C109.95 5.71985 109.681 6.30158 109.681 7.01755C109.681 7.73353 109.95 8.31524 110.442 8.76273C110.935 9.21022 111.561 9.43393 112.277 9.43393Z" fill="black"/>
<path d="M114.29 24.7378V17.6675L114.38 12.8794L113.843 12.5214L107.757 14.6694V15.9671L110.174 16.2803C110.218 16.9516 110.263 17.6228 110.263 18.2493C110.308 18.8758 110.308 19.6364 110.308 20.5314V24.693C110.308 25.6775 110.308 26.5724 110.263 27.4227L108.026 27.8701V29.2574H116.438V27.8701L114.38 27.4674C114.335 26.6172 114.29 25.7222 114.29 24.7378Z" fill="black"/>
<path d="M264.018 27.5123C263.347 27.5123 263.034 27.02 263.034 25.9908V18.6074C263.034 16.4147 262.586 14.8038 261.691 13.9088C260.797 12.9691 259.364 12.4769 257.396 12.4769C255.426 12.4769 253.682 12.8796 252.428 13.6851C251.175 14.4905 250.46 15.5645 250.281 16.9517C250.46 17.9809 251.086 18.4731 252.16 18.4731C252.741 18.4731 253.189 18.2942 253.592 17.8915C253.995 17.4887 254.218 16.9069 254.308 16.1015L254.711 14.2221C254.979 14.1773 255.203 14.1326 255.426 14.1326C255.695 14.0878 255.919 14.0878 256.098 14.0878C257.216 14.0878 257.977 14.3563 258.38 14.938C258.827 15.475 259.051 16.549 259.051 18.1152V19.0548C258.47 19.2338 257.888 19.3681 257.306 19.5471C256.724 19.7261 256.232 19.8604 255.785 20.0394C254.174 20.5763 252.921 21.0686 252.026 21.6503C251.175 22.1873 250.549 22.769 250.236 23.3954C249.877 24.0219 249.744 24.6932 249.744 25.4092C249.744 26.7963 250.191 27.8703 251.041 28.5863C251.936 29.3023 253.01 29.6602 254.263 29.6602C255.337 29.6602 256.232 29.4365 256.903 29.0337C257.574 28.5863 258.335 27.915 259.186 27.0648C259.409 27.8703 259.767 28.4968 260.349 28.9443C260.93 29.3917 261.647 29.6154 262.541 29.6154C263.347 29.6154 264.018 29.4365 264.555 29.1233C265.137 28.7652 265.585 28.2283 266.032 27.4675L265.272 26.7963C264.824 27.2438 264.421 27.5123 264.018 27.5123ZM259.007 25.7671C258.201 26.3488 257.575 26.7069 257.216 26.8858C256.814 27.0648 256.456 27.1543 256.053 27.1543C255.382 27.1543 254.8 26.9754 254.308 26.5726C253.86 26.1698 253.637 25.4986 253.637 24.6484C253.637 23.9772 253.86 23.3507 254.263 22.769C254.711 22.1873 255.472 21.6503 256.59 21.2028C256.903 21.0686 257.216 20.979 257.664 20.8448C258.112 20.7106 258.559 20.5763 259.007 20.3973V25.7671Z" fill="black"/>
<path d="M275.385 19.3234L274.042 18.9206C272.878 18.5179 272.117 18.1599 271.67 17.8019C271.267 17.3992 271.043 16.9069 271.043 16.3252C271.043 15.654 271.312 15.1617 271.804 14.759C272.297 14.3563 273.013 14.1773 273.907 14.1773C274.668 14.1773 275.385 14.3115 276.011 14.58L276.638 17.444H278.875L279.054 13.864C278.249 13.4165 277.443 13.0586 276.638 12.8348C275.832 12.5663 274.981 12.4769 273.998 12.4769C272.61 12.4769 271.447 12.7006 270.462 13.1928C269.523 13.6403 268.806 14.2668 268.314 15.0723C267.822 15.833 267.553 16.6832 267.553 17.6677C267.553 18.8759 267.912 19.8604 268.627 20.6658C269.388 21.4713 270.373 22.053 271.626 22.4558L273.326 23.0375C274.4 23.3954 275.161 23.7982 275.608 24.2009C276.055 24.6037 276.279 25.0959 276.279 25.7223C276.279 26.4383 276.011 27.02 275.429 27.4228C274.848 27.8256 273.998 28.0493 272.834 28.0493C271.894 28.0493 270.999 27.8703 270.193 27.5571L269.567 24.4246H267.285L267.329 28.3625C268.18 28.8548 269.03 29.168 269.925 29.3917C270.82 29.6602 271.76 29.7498 272.789 29.7498C275.071 29.7498 276.816 29.2575 278.025 28.2731C279.278 27.2886 279.904 26.0356 279.904 24.5142C279.904 23.3507 279.546 22.3215 278.875 21.516C278.204 20.5763 277.04 19.8604 275.385 19.3234Z" fill="black"/>
<path d="M297.177 19.2786C297.177 17.8915 296.908 16.6832 296.327 15.6988C295.79 14.6696 295.029 13.9088 294.044 13.3271C293.06 12.7453 291.896 12.4769 290.554 12.4769C289.122 12.4769 287.78 12.8348 286.527 13.5061C285.274 14.1773 284.244 15.1617 283.483 16.5042C282.723 17.8019 282.32 19.3234 282.32 21.1581C282.32 22.948 282.678 24.4246 283.35 25.7223C284.02 26.9754 284.96 27.9598 286.169 28.631C287.377 29.3023 288.764 29.6602 290.33 29.6602C291.896 29.6602 293.283 29.3023 294.403 28.631C295.566 27.915 296.46 26.9754 297.132 25.7223L296.147 24.8274C295.566 25.4539 294.94 25.9909 294.268 26.3936C293.597 26.7963 292.746 26.9754 291.763 26.9754C290.33 26.9754 289.167 26.4831 288.182 25.4986C287.243 24.5142 286.751 23.0823 286.661 21.1133H297.043C297.132 20.6211 297.177 19.9946 297.177 19.2786ZM292.926 19.0101C292.657 19.3681 292.12 19.5023 291.315 19.5023H286.661C286.751 18.1599 286.975 17.0859 287.332 16.2805C287.734 15.475 288.182 14.938 288.675 14.58C289.212 14.2221 289.748 14.043 290.285 14.043C291.135 14.043 291.852 14.3563 292.433 15.0275C293.015 15.6988 293.329 16.549 293.329 17.5782C293.329 18.2046 293.194 18.6969 292.926 19.0101Z" fill="black"/>
<path d="M164.274 27.557C163.737 27.557 163.289 27.378 162.932 26.9753C162.619 26.5726 162.439 25.9909 162.439 25.1406V15.1618H166.557V13.0585H162.484L162.619 8.40479H159.889L158.592 13.0585L155.861 13.4166V15.1618H158.368V22.3662C158.368 23.0374 158.368 23.5745 158.323 24.0667V25.5434C158.323 27.0201 158.725 28.1388 159.486 28.81C160.247 29.4812 161.321 29.8392 162.663 29.8392C163.737 29.8392 164.632 29.6603 165.393 29.2575C166.154 28.8547 166.735 28.3178 167.138 27.6018L166.333 26.7516C165.617 27.2438 164.9 27.5123 164.274 27.557Z" fill="black"/>
<path d="M311.407 21.3818C310.691 20.5316 309.527 19.8603 307.872 19.2786L306.529 18.8759C305.366 18.4731 304.605 18.1151 304.158 17.7572C303.755 17.3545 303.531 16.8622 303.531 16.2805C303.531 15.6093 303.799 15.117 304.292 14.7143C304.784 14.3116 305.5 14.1325 306.395 14.1325C307.156 14.1325 307.872 14.2668 308.498 14.5353L309.124 17.3991H311.362L311.541 13.8193C310.735 13.3718 309.93 13.0139 309.124 12.7901C308.319 12.5216 307.469 12.4321 306.484 12.4321C305.097 12.4321 303.934 12.6558 302.949 13.1481C302.009 13.5956 301.294 14.222 300.802 15.0275C300.309 15.7883 300.041 16.6385 300.041 17.6229C300.041 18.8311 300.398 19.8156 301.115 20.621C301.875 21.4266 302.86 22.0082 304.112 22.411L305.813 22.9927C306.887 23.3507 307.648 23.7534 308.095 24.1562C308.543 24.5589 308.767 25.0511 308.767 25.6776C308.767 26.3936 308.498 26.9753 307.917 27.378C307.335 27.7808 306.484 28.0045 305.321 28.0045C304.381 28.0045 303.486 27.8255 302.681 27.5123L302.055 24.3799H299.772L299.817 28.3178C300.667 28.81 301.518 29.1232 302.412 29.347C303.307 29.6155 304.247 29.7049 305.276 29.7049C307.558 29.7049 309.304 29.2128 310.512 28.2282C311.765 27.2438 312.392 25.9909 312.392 24.4694C312.481 23.2612 312.123 22.232 311.407 21.3818Z" fill="black"/>
<path d="M176.625 19.4576L175.283 19.0549C174.119 18.6521 173.358 18.2941 172.911 17.9362C172.508 17.5334 172.284 17.0412 172.284 16.4595C172.284 15.7883 172.552 15.296 173.045 14.8933C173.537 14.4905 174.253 14.3115 175.148 14.3115C175.909 14.3115 176.625 14.4458 177.251 14.7143L177.877 17.5781H180.115L180.294 14.0431C179.489 13.5956 178.684 13.2376 177.877 13.0138C177.072 12.7454 176.222 12.6558 175.237 12.6558C173.85 12.6558 172.687 12.8796 171.702 13.3718C170.763 13.8193 170.047 14.4458 169.555 15.2512C169.062 16.012 168.794 16.8622 168.794 17.8466C168.794 19.0549 169.151 20.0393 169.868 20.8448C170.628 21.6503 171.613 22.232 172.866 22.6347L174.566 23.2164C175.64 23.5745 176.401 23.9772 176.849 24.3799C177.296 24.7826 177.52 25.2749 177.52 25.9014C177.52 26.6174 177.251 27.1991 176.67 27.6018C176.088 28.0045 175.237 28.2282 174.074 28.2282C173.135 28.2282 172.239 28.0493 171.434 27.736L170.808 24.6037H168.525L168.57 28.5415C169.421 29.0337 170.271 29.347 171.165 29.5707C172.06 29.8392 173 29.9287 174.029 29.9287C176.312 29.9287 178.057 29.4365 179.265 28.452C180.518 27.4676 181.144 26.2146 181.144 24.6931C181.144 23.5297 180.786 22.5005 180.115 21.695C179.444 20.7106 178.28 19.9945 176.625 19.4576Z" fill="black"/>
<path d="M245.403 24.6036V17.5334L245.493 12.7453L244.956 12.3873L238.87 14.5353V15.833L241.286 16.1462C241.331 16.8174 241.331 17.4886 241.331 18.1151C241.375 18.7416 241.375 19.5023 241.375 20.3973V24.5588C241.375 25.5434 241.375 26.4383 241.331 27.2885L239.094 27.736V29.1232H247.506V27.736L245.448 27.3332C245.403 26.483 245.403 25.5881 245.403 24.6036Z" fill="black"/>
<path d="M203.429 15.7434L206.069 16.1909C205.801 17.3991 205.488 18.5178 205.085 19.547C204.682 20.5315 204.235 21.5159 203.608 22.5452C203.026 21.9634 202.489 21.3817 201.907 20.7552C201.326 20.1287 200.744 19.4575 200.073 18.7415C199.491 18.115 198.999 17.5781 198.551 17.1306C198.104 16.6384 197.746 16.2356 197.433 15.8777C199.178 15.0274 200.431 14.1772 201.281 13.2823C202.087 12.3873 202.489 11.358 202.489 10.1946C202.489 8.89689 201.997 7.86768 201.057 7.06221C200.117 6.25674 198.73 5.854 196.94 5.854C195.151 5.854 193.763 6.30149 192.689 7.19645C191.571 8.09143 191.034 9.34438 191.034 10.9106C191.034 11.7608 191.213 12.6557 191.526 13.506C191.839 14.4009 192.421 15.2959 193.226 16.2804C193.272 16.3251 193.316 16.3251 193.316 16.3698C193.361 16.4146 193.361 16.4146 193.405 16.4594C191.66 17.3096 190.363 18.2493 189.512 19.368C188.662 20.4419 188.26 21.695 188.26 23.1269C188.26 24.2456 188.528 25.23 189.11 26.1698C189.691 27.0648 190.497 27.8254 191.571 28.3625C192.645 28.8994 193.898 29.1679 195.329 29.1679C196.94 29.1679 198.283 28.8994 199.357 28.4072C200.431 27.8702 201.326 27.2437 202.042 26.5277C202.221 26.7067 202.355 26.841 202.534 27.02C202.713 27.199 202.892 27.3332 203.026 27.5122C203.698 28.1387 204.368 28.5862 205.04 28.8099C205.712 29.0784 206.517 29.1679 207.501 29.1679C207.993 29.1679 208.396 29.1231 208.843 29.0784C209.291 29.0337 209.783 28.9442 210.454 28.7652L210.678 26.8858L207.412 26.304C206.919 25.767 206.472 25.3196 206.025 24.8273C205.577 24.3798 205.174 23.9323 204.771 23.4848C205.577 22.3214 206.249 21.1579 206.785 19.9945C207.367 18.831 207.859 17.4886 208.262 16.0119L210.723 15.6092V14.1325H203.563L203.429 15.7434ZM195.016 7.95718C195.553 7.4202 196.18 7.15171 196.94 7.15171C197.701 7.15171 198.328 7.4202 198.82 7.91243C199.312 8.40462 199.58 9.0759 199.58 9.97088C199.58 10.8211 199.312 11.6265 198.82 12.432C198.283 13.2375 197.567 14.0429 196.672 14.8484C196.493 14.6246 196.314 14.4009 196.18 14.2219C196.001 13.9982 195.866 13.8192 195.688 13.5955C195.151 12.8795 194.792 12.2083 194.614 11.6713C194.435 11.0896 194.345 10.5526 194.345 10.0156C194.255 9.21014 194.524 8.53894 195.016 7.95718ZM196.896 26.7962C195.912 26.7962 195.061 26.5725 194.3 26.1698C193.585 25.7223 193.003 25.1853 192.6 24.4246C192.197 23.7086 191.974 22.9031 191.974 22.0529C191.974 21.2475 192.152 20.4867 192.465 19.6813C192.779 18.8758 193.361 18.1598 194.211 17.5333C194.659 18.0703 195.151 18.6968 195.688 19.368C196.269 20.0392 196.94 20.8447 197.701 21.7844C198.193 22.3662 198.686 22.9927 199.223 23.6191C199.76 24.2456 200.341 24.8721 200.923 25.4985C199.804 26.3487 198.462 26.7515 196.896 26.7962Z" fill="black"/>
<path d="M230.188 17.3095C232.202 16.9068 233.634 16.2804 234.44 15.2958C235.245 14.3114 235.648 13.2375 235.648 12.074C235.648 10.5077 235.021 9.21004 233.769 8.22561C232.516 7.19639 230.592 6.70416 227.996 6.70416H217.615V8.31514L220.478 8.62831C220.523 10.0602 220.523 11.537 220.523 12.9689V22.9926C220.523 24.4245 220.478 25.8564 220.478 27.2884L217.615 27.6016V29.2126H227.056C228.935 29.2126 230.502 29.0336 231.755 28.6756C233.008 28.3176 234.037 27.8254 234.753 27.1989C235.513 26.5724 236.05 25.9012 236.363 25.1852C236.722 24.4245 236.856 23.7085 236.856 22.9478C236.856 21.5158 236.319 20.3077 235.29 19.2785C234.26 18.2492 232.56 17.6227 230.188 17.3095ZM224.908 12.7452C224.953 11.3133 224.953 9.88132 224.953 8.44938H226.743C228.265 8.44938 229.428 8.76255 230.144 9.38905C230.905 10.0156 231.307 11 231.307 12.3872C231.307 13.7744 230.905 14.8931 230.099 15.6091C229.294 16.325 227.996 16.6383 226.251 16.6383H224.864L224.908 12.7452ZM226.564 27.4227H224.953C224.908 25.9907 224.908 24.5587 224.908 23.082V18.3387H226.43C228.443 18.3387 229.92 18.7414 230.86 19.5022C231.799 20.2629 232.292 21.3816 232.292 22.9478C232.292 25.9012 230.412 27.4227 226.564 27.4227Z" fill="black"/>
<path d="M11.4585 4.86953C12.801 4.86953 13.8749 3.79558 13.8749 2.45312C13.8749 1.11067 12.801 0.0367126 11.4585 0.0367126C10.1161 0.0367126 9.04211 1.11067 9.04211 2.45312C9.04211 3.79558 10.1161 4.86953 11.4585 4.86953Z" fill="black"/>
<path d="M12.3088 15.7883C14.3672 15.2961 15.6649 13.2376 15.1727 11.1792C14.6805 9.12075 12.622 7.82307 10.5636 8.31531C8.50518 8.8075 7.20748 10.8659 7.69971 12.9244C8.19194 15.0275 10.2504 16.2805 12.3088 15.7883Z" fill="black"/>
<path d="M12.3088 34.9853C14.3672 34.493 15.6649 32.4347 15.1727 30.3762C14.6805 28.3178 12.622 27.0201 10.5636 27.5123C8.50518 28.0045 7.20748 30.063 7.69971 32.1214C8.19194 34.1799 10.2504 35.4776 12.3088 34.9853Z" fill="black"/>
<path d="M13.8303 21.6501C13.8303 20.3077 12.7563 19.2337 11.4138 19.2337C10.0714 19.2337 8.99744 20.3077 8.99744 21.6501C8.99744 22.9926 10.0714 24.0666 11.4138 24.0666C12.7563 24.0666 13.8303 22.9926 13.8303 21.6501Z" fill="black"/>
<path d="M26.1807 21.3818C24.0776 21.3818 22.3324 23.0822 22.3324 25.2301C22.3324 27.3333 24.0328 29.0785 26.1807 29.0785C28.2839 29.0785 30.0291 27.378 30.0291 25.2301C29.9843 23.0822 28.2839 21.3818 26.1807 21.3818Z" fill="black"/>
<path d="M26.1808 32.3899C24.8384 32.3899 23.7644 33.4639 23.7644 34.8064C23.7644 36.1488 24.8384 37.2227 26.1808 37.2227C27.5232 37.2227 28.5972 36.1488 28.5972 34.8064C28.5525 33.4639 27.4785 32.3899 26.1808 32.3899Z" fill="black"/>
<path d="M26.1808 18.0255C27.5232 18.0255 28.5972 16.9515 28.5972 15.6091C28.5972 14.2666 27.5232 13.1927 26.1808 13.1927C24.8384 13.1927 23.7644 14.2666 23.7644 15.6091C23.7644 16.9515 24.8384 18.0255 26.1808 18.0255Z" fill="black"/>
<path d="M26.5387 8.40477C27.8364 8.181 28.7314 6.97279 28.5077 5.67509C28.2839 4.37739 27.0757 3.48242 25.778 3.70616C24.4803 3.9299 23.5854 5.1381 23.8091 6.43581C24.0328 7.73351 25.241 8.5837 26.5387 8.40477Z" fill="black"/>
<path d="M43.5878 14.759C45.0645 13.2823 45.0645 10.8212 43.5878 9.34445C42.1111 7.86777 39.65 7.86777 38.1733 9.34445C36.6966 10.8212 36.6966 13.2823 38.1733 14.759C39.65 16.2804 42.1111 16.2804 43.5878 14.759Z" fill="black"/>
<path d="M40.903 4.86953C42.2454 4.86953 43.3193 3.79558 43.3193 2.45312C43.3193 1.11067 42.2454 0.0367126 40.903 0.0367126C39.5605 0.0367126 38.4866 1.11067 38.4866 2.45312C38.4866 3.79558 39.5605 4.86953 40.903 4.86953Z" fill="black"/>
<path d="M40.903 19.2784C39.5605 19.2784 38.4866 20.3524 38.4866 21.6949C38.4866 23.0373 39.5605 24.1113 40.903 24.1113C42.2454 24.1113 43.3193 23.0373 43.3193 21.6949C43.2747 20.3524 42.2007 19.2784 40.903 19.2784Z" fill="black"/>
<path d="M40.903 28.8546C39.5605 28.8546 38.4866 29.9285 38.4866 31.271C38.4866 32.6135 39.5605 33.6874 40.903 33.6874C42.2454 33.6874 43.3193 32.6135 43.3193 31.271C43.2747 29.9285 42.2007 28.8546 40.903 28.8546Z" fill="black"/>
</svg>
